<?xml version="1.0" encoding="UTF-8" standalone="no"?>
<!DOCTYPE svg PUBLIC "-//W3C//DTD SVG 1.1//EN"
 "http://www.w3.org/Graphics/SVG/1.1/DTD/svg11.dtd">
<!-- Generated by graphviz version 2.43.0 (0)
 -->
<!-- Title: call_diagram Pages: 1 -->
<svg width="457pt" height="206pt"
 viewBox="0.00 0.00 457.00 206.00" xmlns="http://www.w3.org/2000/svg" xmlns:xlink="http://www.w3.org/1999/xlink">
<g id="graph0" class="graph" transform="scale(1 1) rotate(0) translate(4 202)">
<title>call_diagram</title>
<polygon fill="white" stroke="transparent" points="-4,4 -4,-202 453,-202 453,4 -4,4"/>
<!-- main -->
<g id="node1" class="node">
<title>main</title>
<polygon fill="none" stroke="black" points="54,-90 0,-90 0,-54 54,-54 54,-90"/>
<text text-anchor="middle" x="27" y="-68.3" font-family="Times,serif" font-size="14.00">main</text>
</g>
<!-- process_input_file -->
<g id="node2" class="node">
<title>process_input_file</title>
<polygon fill="none" stroke="black" points="246.5,-144 102.5,-144 102.5,-108 246.5,-108 246.5,-144"/>
<text text-anchor="middle" x="174.5" y="-122.3" font-family="Times,serif" font-size="14.00">process_input_file</text>
</g>
<!-- main&#45;&gt;process_input_file -->
<g id="edge1" class="edge">
<title>main&#45;&gt;process_input_file</title>
<path fill="none" stroke="black" d="M54.39,-83.78C60.16,-86.25 66.26,-88.77 72,-91 83.86,-95.6 96.61,-100.23 108.94,-104.56"/>
<polygon fill="black" stroke="black" points="108.11,-107.98 118.7,-107.95 110.41,-101.36 108.11,-107.98"/>
<text text-anchor="middle" x="77" y="-97.8" font-family="Times,serif" font-size="14.00">1</text>
</g>
<!-- generate_css -->
<g id="node3" class="node">
<title>generate_css</title>
<polygon fill="none" stroke="black" points="229.5,-90 119.5,-90 119.5,-54 229.5,-54 229.5,-90"/>
<text text-anchor="middle" x="174.5" y="-68.3" font-family="Times,serif" font-size="14.00">generate_css</text>
</g>
<!-- main&#45;&gt;generate_css -->
<g id="edge2" class="edge">
<title>main&#45;&gt;generate_css</title>
<path fill="none" stroke="black" d="M54.01,-72C69.47,-72 89.8,-72 109.3,-72"/>
<polygon fill="black" stroke="black" points="109.39,-75.5 119.39,-72 109.39,-68.5 109.39,-75.5"/>
<text text-anchor="middle" x="77" y="-75.8" font-family="Times,serif" font-size="14.00">2</text>
</g>
<!-- copy_homepage_js -->
<g id="node4" class="node">
<title>copy_homepage_js</title>
<polygon fill="none" stroke="black" points="249,-36 100,-36 100,0 249,0 249,-36"/>
<text text-anchor="middle" x="174.5" y="-14.3" font-family="Times,serif" font-size="14.00">copy_homepage_js</text>
</g>
<!-- main&#45;&gt;copy_homepage_js -->
<g id="edge3" class="edge">
<title>main&#45;&gt;copy_homepage_js</title>
<path fill="none" stroke="black" d="M54.39,-60.22C60.16,-57.75 66.26,-55.23 72,-53 83.86,-48.4 96.61,-43.77 108.94,-39.44"/>
<polygon fill="black" stroke="black" points="110.41,-42.64 118.7,-36.05 108.11,-36.02 110.41,-42.64"/>
<text text-anchor="middle" x="77" y="-56.8" font-family="Times,serif" font-size="14.00">3</text>
</g>
<!-- validate -->
<g id="node5" class="node">
<title>validate</title>
<polygon fill="none" stroke="black" points="442.5,-198 301.5,-198 301.5,-162 442.5,-162 442.5,-198"/>
<text text-anchor="middle" x="372" y="-176.3" font-family="Times,serif" font-size="14.00">Validator.validate</text>
</g>
<!-- process_input_file&#45;&gt;validate -->
<g id="edge4" class="edge">
<title>process_input_file&#45;&gt;validate</title>
<path fill="none" stroke="black" d="M240.87,-144.06C258.56,-148.94 277.84,-154.27 296.02,-159.29"/>
<polygon fill="black" stroke="black" points="295.12,-162.67 305.69,-161.96 296.98,-155.92 295.12,-162.67"/>
<text text-anchor="middle" x="272" y="-156.8" font-family="Times,serif" font-size="14.00">1</text>
</g>
<!-- copy_required_files -->
<g id="node6" class="node">
<title>copy_required_files</title>
<polygon fill="none" stroke="black" points="449,-144 295,-144 295,-108 449,-108 449,-144"/>
<text text-anchor="middle" x="372" y="-122.3" font-family="Times,serif" font-size="14.00">copy_required_files</text>
</g>
<!-- process_input_file&#45;&gt;copy_required_files -->
<g id="edge5" class="edge">
<title>process_input_file&#45;&gt;copy_required_files</title>
<path fill="none" stroke="black" d="M246.63,-126C259.04,-126 272.06,-126 284.82,-126"/>
<polygon fill="black" stroke="black" points="284.98,-129.5 294.98,-126 284.98,-122.5 284.98,-129.5"/>
<text text-anchor="middle" x="272" y="-129.8" font-family="Times,serif" font-size="14.00">2</text>
</g>
<!-- parse_contents -->
<g id="node7" class="node">
<title>parse_contents</title>
<polygon fill="none" stroke="black" points="434.5,-90 309.5,-90 309.5,-54 434.5,-54 434.5,-90"/>
<text text-anchor="middle" x="372" y="-68.3" font-family="Times,serif" font-size="14.00">parse_contents</text>
</g>
<!-- process_input_file&#45;&gt;parse_contents -->
<g id="edge6" class="edge">
<title>process_input_file&#45;&gt;parse_contents</title>
<path fill="none" stroke="black" d="M240.87,-107.94C259.68,-102.75 280.3,-97.05 299.46,-91.76"/>
<polygon fill="black" stroke="black" points="300.62,-95.07 309.33,-89.03 298.76,-88.32 300.62,-95.07"/>
<text text-anchor="middle" x="272" y="-103.8" font-family="Times,serif" font-size="14.00">3</text>
</g>
</g>
</svg>
